<svg width="1405" height="1546" xmlns="http://www.w3.org/2000/svg" xmlns:xlink="http://www.w3.org/1999/xlink" xml:space="preserve" overflow="hidden"><g transform="translate(-1758 -421)"><path d="M2788.42 1410C2863.48 1410 2936.76 1417.6 3007.54 1432.07L3020.18 1435.32 3163 1827.38 3154.25 1822.07C3045.5 1763.04 2920.88 1729.51 2788.42 1729.51 2576.48 1729.51 2384.61 1815.34 2245.73 1954.11L2235.91 1966 1840 1966 1886.84 1888.96C2082.23 1599.99 2413.12 1410 2788.42 1410Z" fill="#AEAEAE" fill-rule="evenodd"/><path d="M2317.67 421.851 2546.72 421.851 2661.25 421.851 2659.66 426.205 3006.66 1379.59 2959.18 1367.38C2888.38 1352.89 2815.08 1345.28 2739.99 1345.28L2655.32 1349.56 2489.46 893.84 2289.23 1443.96 2221.58 1476.55C2036.65 1577.01 1884.12 1729.54 1783.66 1914.46L1758.73 1966.21 2319.25 426.205 2317.67 421.851Z" fill="#059669" fill-rule="evenodd"/></g></svg>